<mxfile host="app.diagrams.net" modified="2022-10-25T08:31:12.122Z" agent="5.0 (Windows NT 10.0; Win64; x64) AppleWebKit/537.36 (KHTML, like Gecko) Chrome/106.0.0.0 Safari/537.36 Edg/106.0.1370.52" etag="qvvRBXtuOCMFNw4ok8jj" version="20.5.1" type="github">
  <diagram id="DlbZVYgtLoxQPH42LOPV" name="第 1 页">
    <mxGraphModel dx="1956" dy="731" grid="1" gridSize="10" guides="1" tooltips="1" connect="1" arrows="1" fold="1" page="1" pageScale="1" pageWidth="827" pageHeight="1169" math="0" shadow="0">
      <root>
        <mxCell id="0" />
        <mxCell id="1" parent="0" />
        <mxCell id="XcbggA3BBUMzlUa0fJI8-1" value="permu =&lt;font color=&quot;#00b800&quot;&gt; { }&lt;/font&gt;&lt;br&gt;candidate = {1, 2, 3}" style="rounded=1;whiteSpace=wrap;html=1;" parent="1" vertex="1">
          <mxGeometry x="320" y="60" width="120" height="60" as="geometry" />
        </mxCell>
        <mxCell id="XcbggA3BBUMzlUa0fJI8-2" value="permu&amp;nbsp;= &lt;font color=&quot;#00b800&quot;&gt;{ 1 }&lt;/font&gt;&lt;br&gt;candidate = {2, 3}" style="rounded=1;whiteSpace=wrap;html=1;" parent="1" vertex="1">
          <mxGeometry x="40" y="239" width="120" height="60" as="geometry" />
        </mxCell>
        <mxCell id="XcbggA3BBUMzlUa0fJI8-3" value="permu&amp;nbsp;= &lt;font color=&quot;#00b800&quot;&gt;{ 2 }&lt;/font&gt;&lt;br&gt;candidate = { 1, 3 }" style="rounded=1;whiteSpace=wrap;html=1;" parent="1" vertex="1">
          <mxGeometry x="320" y="239" width="120" height="60" as="geometry" />
        </mxCell>
        <mxCell id="XcbggA3BBUMzlUa0fJI8-4" value="permu = &lt;font color=&quot;#00b800&quot;&gt;{ 3 }&lt;/font&gt;&lt;br&gt;candidate = { 1, 2 }" style="rounded=1;whiteSpace=wrap;html=1;" parent="1" vertex="1">
          <mxGeometry x="630" y="239" width="120" height="60" as="geometry" />
        </mxCell>
        <mxCell id="XcbggA3BBUMzlUa0fJI8-5" value="permu&amp;nbsp;= &lt;font color=&quot;#00b800&quot;&gt;{ 1, 2 }&lt;/font&gt;&lt;br&gt;candidate = { 3 }" style="rounded=1;whiteSpace=wrap;html=1;" parent="1" vertex="1">
          <mxGeometry x="-120" y="400" width="120" height="60" as="geometry" />
        </mxCell>
        <mxCell id="XcbggA3BBUMzlUa0fJI8-6" value="permu&amp;nbsp;= &lt;font color=&quot;#00b800&quot;&gt;{ 1, 3 }&lt;/font&gt;&lt;br&gt;candidate = { 2 }" style="rounded=1;whiteSpace=wrap;html=1;" parent="1" vertex="1">
          <mxGeometry x="80" y="400" width="120" height="60" as="geometry" />
        </mxCell>
        <mxCell id="XcbggA3BBUMzlUa0fJI8-7" value="" style="endArrow=classic;html=1;rounded=0;strokeWidth=4;entryX=0.5;entryY=0;entryDx=0;entryDy=0;exitX=0;exitY=0.75;exitDx=0;exitDy=0;" parent="1" source="XcbggA3BBUMzlUa0fJI8-1" target="XcbggA3BBUMzlUa0fJI8-2" edge="1">
          <mxGeometry width="50" height="50" relative="1" as="geometry">
            <mxPoint x="320" y="120" as="sourcePoint" />
            <mxPoint x="290" y="250" as="targetPoint" />
          </mxGeometry>
        </mxCell>
        <mxCell id="XcbggA3BBUMzlUa0fJI8-9" value="" style="endArrow=classic;html=1;rounded=0;strokeWidth=4;entryX=0.5;entryY=0;entryDx=0;entryDy=0;exitX=0.25;exitY=1;exitDx=0;exitDy=0;" parent="1" source="XcbggA3BBUMzlUa0fJI8-2" target="XcbggA3BBUMzlUa0fJI8-5" edge="1">
          <mxGeometry width="50" height="50" relative="1" as="geometry">
            <mxPoint x="120" y="300" as="sourcePoint" />
            <mxPoint x="-10" y="410" as="targetPoint" />
          </mxGeometry>
        </mxCell>
        <mxCell id="XcbggA3BBUMzlUa0fJI8-11" value="" style="endArrow=classic;html=1;rounded=0;strokeWidth=4;entryX=0.5;entryY=0;entryDx=0;entryDy=0;exitX=0.5;exitY=1;exitDx=0;exitDy=0;" parent="1" source="XcbggA3BBUMzlUa0fJI8-1" target="XcbggA3BBUMzlUa0fJI8-3" edge="1">
          <mxGeometry width="50" height="50" relative="1" as="geometry">
            <mxPoint x="420" y="140" as="sourcePoint" />
            <mxPoint x="369.40999999999997" y="210" as="targetPoint" />
          </mxGeometry>
        </mxCell>
        <mxCell id="XcbggA3BBUMzlUa0fJI8-12" value="" style="endArrow=classic;html=1;rounded=0;strokeWidth=4;entryX=0.5;entryY=0;entryDx=0;entryDy=0;exitX=0.5;exitY=1;exitDx=0;exitDy=0;" parent="1" source="XcbggA3BBUMzlUa0fJI8-2" target="XcbggA3BBUMzlUa0fJI8-6" edge="1">
          <mxGeometry width="50" height="50" relative="1" as="geometry">
            <mxPoint x="179.81999999999985" y="299" as="sourcePoint" />
            <mxPoint x="179" y="390" as="targetPoint" />
          </mxGeometry>
        </mxCell>
        <mxCell id="XcbggA3BBUMzlUa0fJI8-13" value="" style="endArrow=classic;html=1;rounded=0;strokeWidth=4;entryX=0.5;entryY=0;entryDx=0;entryDy=0;exitX=1;exitY=0.75;exitDx=0;exitDy=0;" parent="1" source="XcbggA3BBUMzlUa0fJI8-1" target="XcbggA3BBUMzlUa0fJI8-4" edge="1">
          <mxGeometry width="50" height="50" relative="1" as="geometry">
            <mxPoint x="430.40999999999985" y="110" as="sourcePoint" />
            <mxPoint x="430" y="229" as="targetPoint" />
          </mxGeometry>
        </mxCell>
        <mxCell id="XcbggA3BBUMzlUa0fJI8-14" value="&lt;font color=&quot;#000000&quot; style=&quot;font-size: 16px;&quot;&gt;Given input = [1, 2, 3]&lt;/font&gt;" style="text;html=1;strokeColor=none;fillColor=none;align=center;verticalAlign=middle;whiteSpace=wrap;rounded=0;fontColor=#00B800;" parent="1" vertex="1">
          <mxGeometry x="-60" y="60" width="200" height="30" as="geometry" />
        </mxCell>
        <mxCell id="XcbggA3BBUMzlUa0fJI8-15" value="&lt;font color=&quot;#000000&quot; style=&quot;font-size: 17px;&quot;&gt;We can get all permutation from each node of backtracking search tree&lt;br&gt;All subset =&amp;nbsp;&lt;/font&gt;&lt;font style=&quot;font-size: 17px;&quot;&gt;&lt;font style=&quot;font-size: 17px;&quot;&gt;{1, 2, 3}&lt;font style=&quot;font-size: 17px;&quot; color=&quot;#000000&quot;&gt;,&amp;nbsp;&lt;/font&gt;{1, 3, 2}&lt;font style=&quot;font-size: 17px;&quot; color=&quot;#000000&quot;&gt;,&amp;nbsp;&lt;/font&gt;{2, 1, 3}&lt;font style=&quot;font-size: 17px;&quot; color=&quot;#000000&quot;&gt;,&amp;nbsp;&lt;/font&gt;{2, 3, 1}&lt;font style=&quot;font-size: 17px;&quot; color=&quot;#000000&quot;&gt;,&amp;nbsp;&lt;/font&gt;{ 3, 1, 2}&lt;font style=&quot;font-size: 17px;&quot; color=&quot;#000000&quot;&gt;,&amp;nbsp;&lt;/font&gt;{ 3, 2, 1}&lt;font style=&quot;font-size: 17px;&quot; color=&quot;#000000&quot;&gt;,&amp;nbsp;&lt;/font&gt;&lt;/font&gt;&lt;br&gt;&lt;/font&gt;" style="text;html=1;strokeColor=none;fillColor=none;align=left;verticalAlign=middle;whiteSpace=wrap;rounded=0;fontColor=#00B800;" parent="1" vertex="1">
          <mxGeometry x="70" y="680" width="560" height="90" as="geometry" />
        </mxCell>
        <mxCell id="XcbggA3BBUMzlUa0fJI8-16" value="permu = &lt;font color=&quot;#00b800&quot;&gt;{ 2, 1 }&lt;/font&gt;&lt;br&gt;candidate = { 3 }" style="rounded=1;whiteSpace=wrap;html=1;" parent="1" vertex="1">
          <mxGeometry x="240" y="400" width="120" height="60" as="geometry" />
        </mxCell>
        <mxCell id="XcbggA3BBUMzlUa0fJI8-17" value="" style="endArrow=classic;html=1;rounded=0;strokeWidth=4;entryX=0.5;entryY=0;entryDx=0;entryDy=0;exitX=0.25;exitY=1;exitDx=0;exitDy=0;" parent="1" source="XcbggA3BBUMzlUa0fJI8-3" target="XcbggA3BBUMzlUa0fJI8-16" edge="1">
          <mxGeometry width="50" height="50" relative="1" as="geometry">
            <mxPoint x="379.40999999999997" y="299" as="sourcePoint" />
            <mxPoint x="379.40999999999997" y="400" as="targetPoint" />
          </mxGeometry>
        </mxCell>
        <mxCell id="XcbggA3BBUMzlUa0fJI8-18" value="select 1" style="text;html=1;strokeColor=none;fillColor=none;align=center;verticalAlign=middle;whiteSpace=wrap;rounded=0;fontSize=14;fontColor=#000000;" parent="1" vertex="1">
          <mxGeometry x="170" y="130" width="60" height="30" as="geometry" />
        </mxCell>
        <mxCell id="XcbggA3BBUMzlUa0fJI8-19" value="select 2" style="text;html=1;strokeColor=none;fillColor=none;align=center;verticalAlign=middle;whiteSpace=wrap;rounded=0;fontSize=14;fontColor=#000000;" parent="1" vertex="1">
          <mxGeometry x="320" y="160" width="60" height="30" as="geometry" />
        </mxCell>
        <mxCell id="XcbggA3BBUMzlUa0fJI8-20" value="select 3" style="text;html=1;strokeColor=none;fillColor=none;align=center;verticalAlign=middle;whiteSpace=wrap;rounded=0;fontSize=14;fontColor=#000000;" parent="1" vertex="1">
          <mxGeometry x="570" y="140" width="60" height="30" as="geometry" />
        </mxCell>
        <mxCell id="XcbggA3BBUMzlUa0fJI8-21" value="select 2" style="text;html=1;strokeColor=none;fillColor=none;align=center;verticalAlign=middle;whiteSpace=wrap;rounded=0;fontSize=14;fontColor=#000000;" parent="1" vertex="1">
          <mxGeometry x="-80" y="320" width="60" height="30" as="geometry" />
        </mxCell>
        <mxCell id="XcbggA3BBUMzlUa0fJI8-22" value="select 3" style="text;html=1;strokeColor=none;fillColor=none;align=center;verticalAlign=middle;whiteSpace=wrap;rounded=0;fontSize=14;fontColor=#000000;" parent="1" vertex="1">
          <mxGeometry x="130" y="320" width="60" height="30" as="geometry" />
        </mxCell>
        <mxCell id="XcbggA3BBUMzlUa0fJI8-23" value="select 1" style="text;html=1;strokeColor=none;fillColor=none;align=center;verticalAlign=middle;whiteSpace=wrap;rounded=0;fontSize=14;fontColor=#000000;" parent="1" vertex="1">
          <mxGeometry x="260" y="320" width="60" height="30" as="geometry" />
        </mxCell>
        <mxCell id="rEszVACwRtIEPIkns6uF-1" value="permu&amp;nbsp;= &lt;font color=&quot;#00b800&quot;&gt;{ 1, 2, 3 }&lt;/font&gt;&lt;br&gt;candidate = {&amp;nbsp; }" style="rounded=1;whiteSpace=wrap;html=1;fillColor=#ffe6cc;strokeColor=#d79b00;" parent="1" vertex="1">
          <mxGeometry x="-120" y="560" width="120" height="60" as="geometry" />
        </mxCell>
        <mxCell id="rEszVACwRtIEPIkns6uF-2" value="permu&amp;nbsp;= &lt;font color=&quot;#00b800&quot;&gt;{ 1, 3, 2 }&lt;/font&gt;&lt;br&gt;candidate = {&amp;nbsp; }" style="rounded=1;whiteSpace=wrap;html=1;fillColor=#ffe6cc;strokeColor=#d79b00;" parent="1" vertex="1">
          <mxGeometry x="80" y="560" width="120" height="60" as="geometry" />
        </mxCell>
        <mxCell id="rEszVACwRtIEPIkns6uF-3" value="" style="endArrow=classic;html=1;rounded=0;strokeWidth=4;entryX=0.5;entryY=0;entryDx=0;entryDy=0;exitX=0.5;exitY=1;exitDx=0;exitDy=0;" parent="1" edge="1">
          <mxGeometry width="50" height="50" relative="1" as="geometry">
            <mxPoint x="-60.50000000000017" y="459" as="sourcePoint" />
            <mxPoint x="-60.50000000000017" y="560" as="targetPoint" />
          </mxGeometry>
        </mxCell>
        <mxCell id="rEszVACwRtIEPIkns6uF-4" value="" style="endArrow=classic;html=1;rounded=0;strokeWidth=4;entryX=0.5;entryY=0;entryDx=0;entryDy=0;exitX=0.5;exitY=1;exitDx=0;exitDy=0;" parent="1" edge="1">
          <mxGeometry width="50" height="50" relative="1" as="geometry">
            <mxPoint x="139.49999999999977" y="460" as="sourcePoint" />
            <mxPoint x="139.49999999999977" y="561" as="targetPoint" />
          </mxGeometry>
        </mxCell>
        <mxCell id="rEszVACwRtIEPIkns6uF-5" value="permu = &lt;font color=&quot;#00b800&quot;&gt;{ 2, 3 }&lt;/font&gt;&lt;br&gt;candidate = { 1 }" style="rounded=1;whiteSpace=wrap;html=1;" parent="1" vertex="1">
          <mxGeometry x="400" y="400" width="120" height="60" as="geometry" />
        </mxCell>
        <mxCell id="rEszVACwRtIEPIkns6uF-6" value="permu&amp;nbsp;= &lt;font color=&quot;#00b800&quot;&gt;{ 2, 1, 3 }&lt;/font&gt;&lt;br&gt;candidate = {&amp;nbsp; }" style="rounded=1;whiteSpace=wrap;html=1;fillColor=#ffe6cc;strokeColor=#d79b00;" parent="1" vertex="1">
          <mxGeometry x="240" y="560" width="120" height="60" as="geometry" />
        </mxCell>
        <mxCell id="rEszVACwRtIEPIkns6uF-7" value="" style="endArrow=classic;html=1;rounded=0;strokeWidth=4;entryX=0.5;entryY=0;entryDx=0;entryDy=0;exitX=0.5;exitY=1;exitDx=0;exitDy=0;" parent="1" edge="1">
          <mxGeometry width="50" height="50" relative="1" as="geometry">
            <mxPoint x="299.4999999999998" y="460" as="sourcePoint" />
            <mxPoint x="299.4999999999998" y="561" as="targetPoint" />
          </mxGeometry>
        </mxCell>
        <mxCell id="rEszVACwRtIEPIkns6uF-8" value="select 3" style="text;html=1;strokeColor=none;fillColor=none;align=center;verticalAlign=middle;whiteSpace=wrap;rounded=0;fontSize=14;fontColor=#000000;" parent="1" vertex="1">
          <mxGeometry x="-130" y="490" width="60" height="30" as="geometry" />
        </mxCell>
        <mxCell id="rEszVACwRtIEPIkns6uF-10" value="select 2" style="text;html=1;strokeColor=none;fillColor=none;align=center;verticalAlign=middle;whiteSpace=wrap;rounded=0;fontSize=14;fontColor=#000000;" parent="1" vertex="1">
          <mxGeometry x="70" y="490" width="60" height="30" as="geometry" />
        </mxCell>
        <mxCell id="rEszVACwRtIEPIkns6uF-11" value="select 3" style="text;html=1;strokeColor=none;fillColor=none;align=center;verticalAlign=middle;whiteSpace=wrap;rounded=0;fontSize=14;fontColor=#000000;" parent="1" vertex="1">
          <mxGeometry x="230" y="490" width="60" height="30" as="geometry" />
        </mxCell>
        <mxCell id="rEszVACwRtIEPIkns6uF-12" value="permu&amp;nbsp;= &lt;font color=&quot;#00b800&quot;&gt;{ 2, 3, 1 }&lt;/font&gt;&lt;br&gt;candidate = {&amp;nbsp; }" style="rounded=1;whiteSpace=wrap;html=1;fillColor=#ffe6cc;strokeColor=#d79b00;" parent="1" vertex="1">
          <mxGeometry x="400" y="560" width="120" height="60" as="geometry" />
        </mxCell>
        <mxCell id="rEszVACwRtIEPIkns6uF-13" value="" style="endArrow=classic;html=1;rounded=0;strokeWidth=4;entryX=0.5;entryY=0;entryDx=0;entryDy=0;exitX=0.5;exitY=1;exitDx=0;exitDy=0;" parent="1" edge="1">
          <mxGeometry width="50" height="50" relative="1" as="geometry">
            <mxPoint x="459.4999999999998" y="460" as="sourcePoint" />
            <mxPoint x="459.4999999999998" y="561" as="targetPoint" />
          </mxGeometry>
        </mxCell>
        <mxCell id="rEszVACwRtIEPIkns6uF-14" value="select 1" style="text;html=1;strokeColor=none;fillColor=none;align=center;verticalAlign=middle;whiteSpace=wrap;rounded=0;fontSize=14;fontColor=#000000;" parent="1" vertex="1">
          <mxGeometry x="390" y="490" width="60" height="30" as="geometry" />
        </mxCell>
        <mxCell id="rEszVACwRtIEPIkns6uF-15" value="" style="endArrow=classic;html=1;rounded=0;strokeWidth=4;entryX=0.5;entryY=0;entryDx=0;entryDy=0;exitX=0.5;exitY=1;exitDx=0;exitDy=0;" parent="1" target="rEszVACwRtIEPIkns6uF-5" edge="1">
          <mxGeometry width="50" height="50" relative="1" as="geometry">
            <mxPoint x="394" y="299" as="sourcePoint" />
            <mxPoint x="434" y="400" as="targetPoint" />
          </mxGeometry>
        </mxCell>
        <mxCell id="oWrks44RNh1cjBgED0Lu-1" value="select 3" style="text;html=1;strokeColor=none;fillColor=none;align=center;verticalAlign=middle;whiteSpace=wrap;rounded=0;fontSize=14;fontColor=#000000;" vertex="1" parent="1">
          <mxGeometry x="440" y="320" width="60" height="30" as="geometry" />
        </mxCell>
        <mxCell id="oWrks44RNh1cjBgED0Lu-3" value="permu = &lt;font color=&quot;#00b800&quot;&gt;{ 3, 1 }&lt;/font&gt;&lt;br&gt;candidate = { 2 }" style="rounded=1;whiteSpace=wrap;html=1;" vertex="1" parent="1">
          <mxGeometry x="560" y="400" width="120" height="60" as="geometry" />
        </mxCell>
        <mxCell id="oWrks44RNh1cjBgED0Lu-4" value="" style="endArrow=classic;html=1;rounded=0;strokeWidth=4;entryX=0.5;entryY=0;entryDx=0;entryDy=0;exitX=0.25;exitY=1;exitDx=0;exitDy=0;" edge="1" parent="1" target="oWrks44RNh1cjBgED0Lu-3">
          <mxGeometry width="50" height="50" relative="1" as="geometry">
            <mxPoint x="670" y="299" as="sourcePoint" />
            <mxPoint x="699.41" y="400" as="targetPoint" />
          </mxGeometry>
        </mxCell>
        <mxCell id="oWrks44RNh1cjBgED0Lu-5" value="select 1" style="text;html=1;strokeColor=none;fillColor=none;align=center;verticalAlign=middle;whiteSpace=wrap;rounded=0;fontSize=14;fontColor=#000000;" vertex="1" parent="1">
          <mxGeometry x="580" y="320" width="60" height="30" as="geometry" />
        </mxCell>
        <mxCell id="oWrks44RNh1cjBgED0Lu-6" value="permu = &lt;font color=&quot;#00b800&quot;&gt;{ 3, 2 }&lt;/font&gt;&lt;br&gt;candidate = { 1 }" style="rounded=1;whiteSpace=wrap;html=1;" vertex="1" parent="1">
          <mxGeometry x="720" y="400" width="120" height="60" as="geometry" />
        </mxCell>
        <mxCell id="oWrks44RNh1cjBgED0Lu-7" value="permu&amp;nbsp;= &lt;font color=&quot;#00b800&quot;&gt;{ 3, 1, 2 }&lt;/font&gt;&lt;br&gt;candidate = {&amp;nbsp; }" style="rounded=1;whiteSpace=wrap;html=1;fillColor=#ffe6cc;strokeColor=#d79b00;" vertex="1" parent="1">
          <mxGeometry x="560" y="560" width="120" height="60" as="geometry" />
        </mxCell>
        <mxCell id="oWrks44RNh1cjBgED0Lu-8" value="" style="endArrow=classic;html=1;rounded=0;strokeWidth=4;entryX=0.5;entryY=0;entryDx=0;entryDy=0;exitX=0.5;exitY=1;exitDx=0;exitDy=0;" edge="1" parent="1">
          <mxGeometry width="50" height="50" relative="1" as="geometry">
            <mxPoint x="619.4999999999998" y="460" as="sourcePoint" />
            <mxPoint x="619.4999999999998" y="561" as="targetPoint" />
          </mxGeometry>
        </mxCell>
        <mxCell id="oWrks44RNh1cjBgED0Lu-9" value="select 2" style="text;html=1;strokeColor=none;fillColor=none;align=center;verticalAlign=middle;whiteSpace=wrap;rounded=0;fontSize=14;fontColor=#000000;" vertex="1" parent="1">
          <mxGeometry x="550" y="490" width="60" height="30" as="geometry" />
        </mxCell>
        <mxCell id="oWrks44RNh1cjBgED0Lu-10" value="permu&amp;nbsp;= &lt;font color=&quot;#00b800&quot;&gt;{ 3, 2, 1 }&lt;/font&gt;&lt;br&gt;candidate = {&amp;nbsp; }" style="rounded=1;whiteSpace=wrap;html=1;fillColor=#ffe6cc;strokeColor=#d79b00;" vertex="1" parent="1">
          <mxGeometry x="720" y="560" width="120" height="60" as="geometry" />
        </mxCell>
        <mxCell id="oWrks44RNh1cjBgED0Lu-11" value="" style="endArrow=classic;html=1;rounded=0;strokeWidth=4;entryX=0.5;entryY=0;entryDx=0;entryDy=0;exitX=0.5;exitY=1;exitDx=0;exitDy=0;" edge="1" parent="1">
          <mxGeometry width="50" height="50" relative="1" as="geometry">
            <mxPoint x="779.4999999999998" y="460" as="sourcePoint" />
            <mxPoint x="779.4999999999998" y="561" as="targetPoint" />
          </mxGeometry>
        </mxCell>
        <mxCell id="oWrks44RNh1cjBgED0Lu-12" value="select 1" style="text;html=1;strokeColor=none;fillColor=none;align=center;verticalAlign=middle;whiteSpace=wrap;rounded=0;fontSize=14;fontColor=#000000;" vertex="1" parent="1">
          <mxGeometry x="710" y="490" width="60" height="30" as="geometry" />
        </mxCell>
        <mxCell id="oWrks44RNh1cjBgED0Lu-13" value="" style="endArrow=classic;html=1;rounded=0;strokeWidth=4;entryX=0.5;entryY=0;entryDx=0;entryDy=0;exitX=0.5;exitY=1;exitDx=0;exitDy=0;" edge="1" parent="1" target="oWrks44RNh1cjBgED0Lu-6">
          <mxGeometry width="50" height="50" relative="1" as="geometry">
            <mxPoint x="714" y="299" as="sourcePoint" />
            <mxPoint x="754" y="400" as="targetPoint" />
          </mxGeometry>
        </mxCell>
        <mxCell id="oWrks44RNh1cjBgED0Lu-14" value="select 2" style="text;html=1;strokeColor=none;fillColor=none;align=center;verticalAlign=middle;whiteSpace=wrap;rounded=0;fontSize=14;fontColor=#000000;" vertex="1" parent="1">
          <mxGeometry x="760" y="320" width="60" height="30" as="geometry" />
        </mxCell>
      </root>
    </mxGraphModel>
  </diagram>
</mxfile>
